{
  "accessors": [
    {
      "bufferView": 2,
      "componentType": 5126,
      "count": 4366,
      "max": [
        19.69809913635254,
        7.8744001388549805,
        60.846500396728516
      ],
      "min": [
        -19.69809913635254,
        -6.338500022888184,
        -0.1599999964237213
      ],
      "type": "VEC3"
    },
    {
      "bufferView": 2,
      "byteOffset": 52392,
      "componentType": 5126,
      "count": 4366,
      "max": [
        0.9998064637184143,
        0.9998520612716675,
        0.9988855719566345
      ],
      "min": [
        -0.9998064637184143,
        -0.9998860359191895,
        -0.9989270567893982
      ],
      "type": "VEC3"
    },
    {
      "bufferView": 1,
      "componentType": 5126,
      "count": 4366,
      "max": [
        0.9944999814033508,
        0.9925000071525574
      ],
      "min": [
        0.004000000189989805,
        0.00800000037997961
      ],
      "type": "VEC2"
    },
    {
      "bufferView": 0,
      "componentType": 5125,
      "count": 17238,
      "type": "SCALAR"
    },
    {
      "bufferView": 2,
      "byteOffset": 104784,
      "componentType": 5126,
      "count": 2802,
      "max": [
        48.6953010559082,
        41.06650161743164,
        33.094398498535156
      ],
      "min": [
        -48.5275993347168,
        -2.462599992752075,
        -1.187399983406067
      ],
      "type": "VEC3"
    },
    {
      "bufferView": 2,
      "byteOffset": 138408,
      "componentType": 5126,
      "count": 2802,
      "max": [
        0.9993351697921753,
        0.997193455696106,
        0.9919829368591309
      ],
      "min": [
        -0.9996485114097595,
        -0.9962761998176575,
        -0.9997556805610657
      ],
      "type": "VEC3"
    },
    {
      "bufferView": 1,
      "byteOffset": 34928,
      "componentType": 5126,
      "count": 2802,
      "max": [
        0.972000002861023,
        0.9702000021934509
      ],
      "min": [
        0.013100000098347664,
        0.040800001472234726
      ],
      "type": "VEC2"
    },
    {
      "bufferView": 0,
      "byteOffset": 68952,
      "componentType": 5125,
      "count": 2802,
      "type": "SCALAR"
    }
  ],
  "asset": {
    "extras": {
      "author": "1FENIL (https://sketchfab.com/1FENIL)",
      "license": "CC-BY-4.0 (http://creativecommons.org/licenses/by/4.0/)",
      "source": "https://sketchfab.com/3d-models/league-of-legends-ahri-kda-e62a32f688364cd697c4d1e1bc101532",
      "title": "League Of Legends - Ahri KDA"
    },
    "generator": "Sketchfab-12.68.0",
    "version": "2.0"
  },
  "bufferViews": [
    {
      "buffer": 0,
      "byteLength": 80160,
      "name": "floatBufferViews",
      "target": 34963
    },
    {
      "buffer": 0,
      "byteLength": 57344,
      "byteOffset": 80160,
      "byteStride": 8,
      "name": "floatBufferViews",
      "target": 34962
    },
    {
      "buffer": 0,
      "byteLength": 172032,
      "byteOffset": 137504,
      "byteStride": 12,
      "name": "floatBufferViews",
      "target": 34962
    }
  ],
  "buffers": [
    {
      "byteLength": 309536,
      "uri": "scene.bin"
    }
  ],
  "images": [
    {
      "uri": "textures/Material__46_baseColor.png"
    },
    {
      "uri": "textures/Material__47_baseColor.png"
    }
  ],
  "materials": [
    {
      "doubleSided": true,
      "emissiveTexture": {
        "index": 0
      },
      "name": "Material__46",
      "pbrMetallicRoughness": {
        "baseColorTexture": {
          "index": 0
        },
        "metallicFactor": 0.0
      }
    },
    {
      "doubleSided": true,
      "emissiveTexture": {
        "index": 1
      },
      "name": "Material__47",
      "pbrMetallicRoughness": {
        "baseColorTexture": {
          "index": 1
        },
        "metallicFactor": 0.0
      }
    }
  ],
  "meshes": [
    {
      "name": "Object_0",
      "primitives": [
        {
          "attributes": {
            "NORMAL": 1,
            "POSITION": 0,
            "TEXCOORD_0": 2
          },
          "indices": 3,
          "material": 0,
          "mode": 4
        }
      ]
    },
    {
      "name": "Object_1",
      "primitives": [
        {
          "attributes": {
            "NORMAL": 5,
            "POSITION": 4,
            "TEXCOORD_0": 6
          },
          "indices": 7,
          "material": 1,
          "mode": 4
        }
      ]
    }
  ],
  "nodes": [
    {
      "children": [
        1
      ],
      "matrix": [
        1.0,
        0.0,
        0.0,
        0.0,
        0.0,
        2.220446049250313e-16,
        -1.0,
        0.0,
        0.0,
        1.0,
        2.220446049250313e-16,
        0.0,
        0.0,
        0.0,
        0.0,
        1.0
      ],
      "name": "Sketchfab_model"
    },
    {
      "children": [
        2,
        3
      ],
      "name": "Ahri KDA.obj.cleaner.materialmerger.gles"
    },
    {
      "mesh": 0,
      "name": "Object_2"
    },
    {
      "mesh": 1,
      "name": "Object_3"
    }
  ],
  "samplers": [
    {
      "magFilter": 9729,
      "minFilter": 9987,
      "wrapS": 10497,
      "wrapT": 10497
    }
  ],
  "scene": 0,
  "scenes": [
    {
      "name": "Sketchfab_Scene",
      "nodes": [
        0
      ]
    }
  ],
  "textures": [
    {
      "sampler": 0,
      "source": 0
    },
    {
      "sampler": 0,
      "source": 1
    }
  ]
}
